<svg width="52" height="50" viewBox="0 0 52 50" fill="none" xmlns="http://www.w3.org/2000/svg">
<path d="M51.5 1C51.5 0.447715 51.0523 0 50.5 0C49.9477 0 49.5 0.447715 49.5 1L51.5 1ZM4.94868 24.1838C4.77404 23.6598 4.20772 23.3767 3.68377 23.5513C3.15983 23.726 2.87667 24.2923 3.05132 24.8162L4.94868 24.1838ZM50.5 49L49.692 49.5892C49.9471 49.939 50.3982 50.0849 50.8098 49.9508C51.2214 49.8167 51.5 49.4329 51.5 49L50.5 49ZM15.5 1L16.308 0.410828C16.0529 0.0610331 15.6018 -0.0849208 15.1902 0.0492089C14.7786 0.183339 14.5 0.56709 14.5 1L15.5 1ZM4.33026 25.4908L5.27894 25.1745L4.33026 25.4908ZM49.5 1L49.5 49L51.5 49L51.5 1L49.5 1ZM51.308 48.4108L16.308 0.410828L14.692 1.58917L49.692 49.5892L51.308 48.4108ZM14.5 1L14.5 24.5L16.5 24.5L16.5 1L14.5 1ZM5.27894 25.1745L4.94868 24.1838L3.05132 24.8162L3.38157 25.807L5.27894 25.1745ZM14.5105 24.3557C13.7863 29.3216 6.8659 29.9354 5.27894 25.1745L3.38157 25.807C5.63491 32.567 15.4612 31.6954 16.4895 24.6443L14.5105 24.3557Z" fill="black"/>
<line x1="38" y1="1" x2="38" y2="49" stroke="black" stroke-width="2" stroke-linecap="round"/>
<circle cx="14.5" cy="24.5" r="13.5" stroke="black" stroke-width="2"/>
<line x1="15" y1="24" x2="50" y2="24" stroke="black" stroke-width="2"/>
</svg>
