<svg viewBox="0 0 237 28" fill="none" xmlns="http://www.w3.org/2000/svg">
<path d="M21.464 20.196C21.464 21.3 21.308 22.308 20.996 23.22C20.684 24.108 20.132 24.876 19.34 25.524C18.572 26.148 17.504 26.64 16.136 27C14.768 27.36 13.028 27.54 10.916 27.54C8.828 27.54 7.1 27.36 5.732 27C4.388 26.64 3.32 26.148 2.528 25.524C1.76 24.876 1.22 24.108 0.908 23.22C0.62 22.308 0.476 21.3 0.476 20.196V14.364C0.476 13.908 0.572 13.584 0.764 13.392C0.98 13.176 1.316 13.068 1.772 13.068H6.992C7.448 13.068 7.772 13.176 7.964 13.392C8.18 13.584 8.288 13.908 8.288 14.364V18.756C8.288 19.236 8.432 19.644 8.72 19.98C9.032 20.292 9.74 20.448 10.844 20.448C11.876 20.448 12.524 20.292 12.788 19.98C13.076 19.644 13.22 19.236 13.22 18.756V2.376C13.22 1.92 13.316 1.596 13.508 1.404C13.724 1.188 14.06 1.08 14.516 1.08H20.168C20.624 1.08 20.948 1.188 21.14 1.404C21.356 1.596 21.464 1.92 21.464 2.376V20.196ZM48.2292 20.196C48.2292 21.3 48.0612 22.308 47.7252 23.22C47.4132 24.108 46.8372 24.876 45.9972 25.524C45.1812 26.148 44.0412 26.64 42.5772 27C41.1372 27.36 39.3012 27.54 37.0692 27.54C34.8372 27.54 32.9892 27.36 31.5252 27C30.0612 26.64 28.9092 26.148 28.0692 25.524C27.2532 24.876 26.6772 24.108 26.3412 23.22C26.0292 22.308 25.8732 21.3 25.8732 20.196V7.92C25.8732 6.816 26.0292 5.82 26.3412 4.932C26.6772 4.02 27.2532 3.24 28.0692 2.592C28.9092 1.944 30.0612 1.44 31.5252 1.08C32.9892 0.719999 34.8372 0.539999 37.0692 0.539999C39.3012 0.539999 41.1372 0.719999 42.5772 1.08C44.0412 1.44 45.1812 1.944 45.9972 2.592C46.8372 3.24 47.4132 4.02 47.7252 4.932C48.0612 5.82 48.2292 6.816 48.2292 7.92V20.196ZM34.0452 18.9C34.0452 19.38 34.2252 19.788 34.5852 20.124C34.9452 20.436 35.7732 20.592 37.0692 20.592C38.3652 20.592 39.1932 20.436 39.5532 20.124C39.9132 19.788 40.0932 19.38 40.0932 18.9V9.216C40.0932 8.76 39.9132 8.376 39.5532 8.064C39.1932 7.728 38.3652 7.56 37.0692 7.56C35.7732 7.56 34.9452 7.728 34.5852 8.064C34.2252 8.376 34.0452 8.76 34.0452 9.216V18.9ZM59.6881 27H54.1081C53.6521 27 53.3161 26.904 53.1001 26.712C52.9081 26.496 52.8121 26.16 52.8121 25.704V2.376C52.8121 1.92 52.9081 1.596 53.1001 1.404C53.3161 1.188 53.6521 1.08 54.1081 1.08H59.6881C60.1441 1.08 60.4681 1.188 60.6601 1.404C60.8761 1.596 60.9841 1.92 60.9841 2.376V10.188H66.9961V2.376C66.9961 1.92 67.0921 1.596 67.2841 1.404C67.5001 1.188 67.8361 1.08 68.2921 1.08H73.8721C74.3281 1.08 74.6521 1.188 74.8441 1.404C75.0601 1.596 75.1681 1.92 75.1681 2.376V25.704C75.1681 26.16 75.0601 26.496 74.8441 26.712C74.6521 26.904 74.3281 27 73.8721 27H68.2921C67.8361 27 67.5001 26.904 67.2841 26.712C67.0921 26.496 66.9961 26.16 66.9961 25.704V17.712H60.9841V25.704C60.9841 26.16 60.8761 26.496 60.6601 26.712C60.4681 26.904 60.1441 27 59.6881 27ZM86.8245 27H81.4245C80.9685 27 80.6325 26.904 80.4165 26.712C80.2245 26.496 80.1285 26.16 80.1285 25.704V2.376C80.1285 1.92 80.2245 1.596 80.4165 1.404C80.6325 1.188 80.9685 1.08 81.4245 1.08H85.1685C85.6245 1.08 86.0085 1.152 86.3205 1.296C86.6565 1.44 86.9805 1.692 87.2925 2.052L94.2765 10.044V2.376C94.2765 1.92 94.3725 1.596 94.5645 1.404C94.7805 1.188 95.1165 1.08 95.5725 1.08H100.973C101.429 1.08 101.753 1.188 101.945 1.404C102.161 1.596 102.269 1.92 102.269 2.376V25.704C102.269 26.16 102.161 26.496 101.945 26.712C101.753 26.904 101.429 27 100.973 27H95.5725C95.1165 27 94.7805 26.904 94.5645 26.712C94.3725 26.496 94.2765 26.16 94.2765 25.704V21.276L88.1205 13.824V25.704C88.1205 26.16 88.0125 26.496 87.7965 26.712C87.6045 26.904 87.2805 27 86.8245 27ZM132.564 27H123.78C120.78 27 118.548 26.4 117.084 25.2C115.644 24 114.924 22.152 114.924 19.656V8.46C114.924 5.964 115.644 4.116 117.084 2.916C118.548 1.692 120.78 1.08 123.78 1.08H132.564C133.02 1.08 133.344 1.188 133.536 1.404C133.752 1.596 133.86 1.92 133.86 2.376V6.732C133.86 7.188 133.752 7.524 133.536 7.74C133.344 7.932 133.02 8.028 132.564 8.028H125.328C124.584 8.028 124.032 8.184 123.672 8.496C123.312 8.784 123.132 9.228 123.132 9.828V18.396C123.132 18.996 123.312 19.44 123.672 19.728C124.032 19.992 124.584 20.124 125.328 20.124H132.564C133.02 20.124 133.344 20.232 133.536 20.448C133.752 20.64 133.86 20.964 133.86 21.42V25.704C133.86 26.16 133.752 26.496 133.536 26.712C133.344 26.904 133.02 27 132.564 27ZM144.801 27H139.221C138.765 27 138.429 26.904 138.213 26.712C138.021 26.496 137.925 26.16 137.925 25.704V2.376C137.925 1.92 138.021 1.596 138.213 1.404C138.429 1.188 138.765 1.08 139.221 1.08H144.801C145.257 1.08 145.581 1.188 145.773 1.404C145.989 1.596 146.097 1.92 146.097 2.376V10.188H152.109V2.376C152.109 1.92 152.205 1.596 152.397 1.404C152.613 1.188 152.949 1.08 153.405 1.08H158.985C159.441 1.08 159.765 1.188 159.957 1.404C160.173 1.596 160.281 1.92 160.281 2.376V25.704C160.281 26.16 160.173 26.496 159.957 26.712C159.765 26.904 159.441 27 158.985 27H153.405C152.949 27 152.613 26.904 152.397 26.712C152.205 26.496 152.109 26.16 152.109 25.704V17.712H146.097V25.704C146.097 26.16 145.989 26.496 145.773 26.712C145.581 26.904 145.257 27 144.801 27ZM183.242 27H166.538C166.082 27 165.746 26.904 165.53 26.712C165.338 26.496 165.242 26.16 165.242 25.704V2.376C165.242 1.92 165.338 1.596 165.53 1.404C165.746 1.188 166.082 1.08 166.538 1.08H183.242C183.698 1.08 184.022 1.188 184.214 1.404C184.43 1.596 184.538 1.92 184.538 2.376V6.588C184.538 7.044 184.43 7.38 184.214 7.596C184.022 7.788 183.698 7.884 183.242 7.884H173.306V10.656H180.326C180.782 10.656 181.106 10.764 181.298 10.98C181.514 11.172 181.622 11.496 181.622 11.952V15.804C181.622 16.26 181.514 16.596 181.298 16.812C181.106 17.004 180.782 17.1 180.326 17.1H173.306V20.196H183.242C183.698 20.196 184.022 20.304 184.214 20.52C184.43 20.712 184.538 21.036 184.538 21.492V25.704C184.538 26.16 184.43 26.496 184.214 26.712C184.022 26.904 183.698 27 183.242 27ZM195.493 27H190.093C189.637 27 189.301 26.904 189.085 26.712C188.893 26.496 188.797 26.16 188.797 25.704V2.376C188.797 1.92 188.893 1.596 189.085 1.404C189.301 1.188 189.637 1.08 190.093 1.08H193.837C194.293 1.08 194.677 1.152 194.989 1.296C195.325 1.44 195.649 1.692 195.961 2.052L202.945 10.044V2.376C202.945 1.92 203.041 1.596 203.233 1.404C203.449 1.188 203.785 1.08 204.241 1.08H209.641C210.097 1.08 210.421 1.188 210.613 1.404C210.829 1.596 210.937 1.92 210.937 2.376V25.704C210.937 26.16 210.829 26.496 210.613 26.712C210.421 26.904 210.097 27 209.641 27H204.241C203.785 27 203.449 26.904 203.233 26.712C203.041 26.496 202.945 26.16 202.945 25.704V21.276L196.789 13.824V25.704C196.789 26.16 196.681 26.496 196.465 26.712C196.273 26.904 195.949 27 195.493 27ZM235.702 27H224.362C221.362 27 219.13 26.4 217.666 25.2C216.226 24 215.506 22.152 215.506 19.656V8.424C215.506 5.928 216.226 4.08 217.666 2.88C219.13 1.68 221.362 1.08 224.362 1.08H233.362C233.818 1.08 234.142 1.188 234.334 1.404C234.55 1.596 234.658 1.92 234.658 2.376V6.732C234.658 7.188 234.55 7.524 234.334 7.74C234.142 7.932 233.818 8.028 233.362 8.028H225.874C225.13 8.028 224.578 8.184 224.218 8.496C223.858 8.784 223.678 9.228 223.678 9.828V18.432C223.678 19.032 223.81 19.476 224.074 19.764C224.362 20.052 224.782 20.196 225.334 20.196H228.826V14.58C228.826 14.124 228.922 13.8 229.114 13.608C229.33 13.392 229.666 13.284 230.122 13.284H235.702C236.158 13.284 236.482 13.392 236.674 13.608C236.89 13.8 236.998 14.124 236.998 14.58V25.704C236.998 26.16 236.89 26.496 236.674 26.712C236.482 26.904 236.158 27 235.702 27Z" fill="black"/>
</svg>
